<?xml version="1.0" encoding="UTF-8" standalone="no"?><!DOCTYPE svg PUBLIC "-//W3C//DTD SVG 1.1//EN" "http://www.w3.org/Graphics/SVG/1.1/DTD/svg11.dtd"><svg width="100%" height="100%" viewBox="0 0 4167 4167" version="1.1" xmlns="http://www.w3.org/2000/svg" xmlns:xlink="http://www.w3.org/1999/xlink" xml:space="preserve" style="fill-rule:evenodd;clip-rule:evenodd;stroke-linejoin:round;stroke-miterlimit:1.41421;"><g id="Calque1"><g><path d="M1658.26,2472.06l247.39,57.314l-66.689,285.626l391.82,91.474l-153.798,658.893l-2.831,-0.695c-2.113,3.902 -4.255,7.786 -6.423,11.651c-151.585,270.135 -436.811,447.794 -618.452,405.346c-200.975,-46.929 -369.969,-337.591 -377.319,-650.997l-2.88,-0.645l153.847,-658.843l368.778,86.061l66.557,-285.185Z" style="fill:#555;stroke:#000;stroke-width:20.86px;"/><path d="M1654.65,2488.9l340.044,-1457.02l-220.244,-354.475c-13.905,-22.347 -18.374,-49.363 -12.365,-75.037l46.333,-198.393c12.465,-53.385 65.899,-86.558 119.334,-74.093l692.761,161.694c25.724,6.009 47.922,21.9 61.827,44.297c13.905,22.397 18.374,49.412 12.365,75.037l-46.333,198.442c-6.009,25.625 -21.9,47.873 -44.247,61.728l-363.762,226.103l-338.322,1449.03l-247.391,-57.314Zm310.297,-1881.37l14.402,-61.629l499.384,116.652l-14.402,61.629l-245.52,152.556l-101.208,-23.638l-152.656,-245.57Z" style="fill:#573c00;stroke:#000;stroke-width:20.86px;"/></g><path d="M1697.09,1721.16c-25.724,-72.206 -16.19,-159.708 -47.327,-227.097c-33.173,-71.809 -101.853,-147.143 -148.434,-225.507c-49.611,-83.429 -87.005,-180.466 -96.59,-264.491c-21.502,-188.957 78.066,-356.461 230.474,-500.327c178.33,-168.398 500.029,-416.601 785.824,-351.496c171.279,39.033 252.871,183.396 412.379,300.445c60.338,38.487 200.678,-86.31 259.029,-23.489c28.505,30.739 7.002,95.397 -19.865,142.475c-49.759,87.154 -148.285,172.073 -199.535,251.48c-77.37,119.83 7.002,263.398 -50.306,385.165c-42.062,89.339 -158.714,174.159 -231.913,233.751c-235.042,191.242 -477.335,366.84 -734.178,438.053c-46.581,12.912 -121.469,29.697 -158.814,-5.76c-36.053,-34.316 -27.71,-101.357 -0.744,-153.202l0,0Zm836.229,-1350.91c7.3,4.221 15.743,6.654 24.83,6.654c27.363,0 49.661,-22.248 49.661,-49.66c0,-27.413 -22.298,-49.66 -49.661,-49.66c-9.087,0 -17.53,2.433 -24.83,6.654c-7.349,-4.221 -15.792,-6.654 -24.83,-6.654c-27.412,0 -49.66,22.247 -49.66,49.66c0,27.412 22.248,49.66 49.66,49.66c9.038,0 17.481,-2.433 24.83,-6.654Z" style="fill:#586157;stroke:#000;stroke-width:20.86px;"/><path d="M2146.1,1145.61c29.232,-38.106 22.027,-92.775 -16.079,-122.007l-332.524,-255.083c-38.106,-29.232 -92.775,-22.027 -122.007,16.079l-105.927,138.086c-29.232,38.106 -22.027,92.775 16.079,122.006l332.524,255.084c38.106,29.231 92.775,22.027 122.007,-16.079l105.927,-138.086Z" style="fill:#750000;"/><path d="M1745.27,729.729l0.647,0.006l0.649,0.01l0.648,0.013l0.647,0.018l0.648,0.021l0.648,0.026l0.648,0.029l0.647,0.033l0.648,0.037l0.648,0.041l0.648,0.045l0.648,0.048l0.646,0.053l0.648,0.056l0.648,0.061l0.646,0.064l0.647,0.069l0.646,0.072l0.646,0.076l0.648,0.08l0.644,0.084l0.646,0.088l0.647,0.092l0.644,0.095l0.644,0.1l0.645,0.104l0.643,0.107l0.644,0.112l0.643,0.115l0.642,0.12l0.643,0.123l0.643,0.128l0.64,0.131l0.64,0.135l0.641,0.14l0.64,0.143l0.639,0.147l0.638,0.151l0.639,0.156l0.637,0.159l0.636,0.163l0.637,0.167l0.634,0.171l0.636,0.176l0.634,0.179l0.632,0.183l0.633,0.187l0.632,0.191l0.631,0.195l0.63,0.2l0.629,0.203l0.629,0.207l0.627,0.211l0.626,0.215l0.626,0.22l0.624,0.223l0.624,0.227l0.623,0.232l0.622,0.235l0.62,0.239l0.621,0.244l0.617,0.247l0.618,0.251l0.617,0.256l0.614,0.259l0.615,0.264l0.614,0.268l0.611,0.272l0.611,0.275l0.608,0.28l0.608,0.284l0.608,0.288l0.605,0.291l0.604,0.296l0.604,0.301l0.601,0.303l0.6,0.309l0.598,0.311l0.597,0.316l0.596,0.321l0.594,0.324l0.594,0.328l0.591,0.333l0.59,0.336l0.588,0.34l0.586,0.344l0.586,0.349l0.583,0.353l0.581,0.356l0.58,0.36l0.579,0.366l0.577,0.368l0.575,0.373l0.573,0.377l0.57,0.38l0.57,0.385l0.569,0.39l0.566,0.393l0.563,0.396l0.562,0.4l0.561,0.406l0.559,0.409l0.554,0.412l0.556,0.418l0.527,0.401l332.574,255.122l0.526,0.406l0.547,0.429l0.541,0.429l0.538,0.432l0.538,0.436l0.535,0.441l0.527,0.44l0.526,0.445l0.523,0.448l0.521,0.452l0.516,0.454l0.508,0.452l0.511,0.46l0.507,0.463l0.502,0.464l0.499,0.467l0.493,0.468l0.493,0.473l0.488,0.476l0.484,0.476l0.482,0.48l0.479,0.484l0.471,0.483l0.471,0.487l0.47,0.494l0.461,0.489l0.46,0.494l0.458,0.5l0.453,0.499l0.45,0.503l0.444,0.503l0.442,0.506l0.439,0.51l0.437,0.513l0.431,0.513l0.428,0.516l0.426,0.52l0.417,0.516l0.42,0.526l0.415,0.527l0.407,0.523l0.408,0.531l0.401,0.53l0.4,0.533l0.396,0.536l0.393,0.539l0.388,0.539l0.384,0.54l0.383,0.546l0.376,0.545l0.373,0.545l0.371,0.55l0.367,0.553l0.362,0.552l0.361,0.556l0.356,0.559l0.351,0.557l0.347,0.558l0.345,0.563l0.342,0.567l0.336,0.563l0.334,0.569l0.331,0.57l0.324,0.568l0.324,0.574l0.32,0.576l0.315,0.576l0.312,0.578l0.306,0.578l0.305,0.581l0.3,0.582l0.296,0.581l0.293,0.587l0.291,0.59l0.286,0.589l0.28,0.586l0.279,0.592l0.274,0.592l0.271,0.595l0.267,0.596l0.263,0.596l0.26,0.599l0.256,0.6l0.252,0.6l0.248,0.601l0.245,0.603l0.241,0.605l0.237,0.606l0.233,0.606l0.231,0.611l0.226,0.61l0.221,0.605l0.22,0.615l0.215,0.617l0.21,0.608l0.207,0.614l0.205,0.62l0.199,0.615l0.196,0.617l0.193,0.623l0.188,0.618l0.184,0.62l0.182,0.625l0.178,0.626l0.173,0.623l0.168,0.618l0.167,0.628l0.171,0.661l0.304,1.222l0.298,1.26l0.283,1.262l0.268,1.267l0.252,1.267l0.238,1.269l0.222,1.275l0.207,1.276l0.192,1.278l0.176,1.278l0.161,1.282l0.146,1.286l0.131,1.287l0.115,1.286l0.1,1.288l0.085,1.29l0.069,1.292l0.054,1.294l0.038,1.293l0.023,1.262l0.006,0.676l0.002,0.647l-0.002,0.651l-0.006,0.647l-0.01,0.647l-0.014,0.652l-0.017,0.646l-0.022,0.642l-0.025,0.652l-0.029,0.651l-0.033,0.642l-0.037,0.646l-0.041,0.651l-0.045,0.651l-0.049,0.646l-0.052,0.646l-0.057,0.65l-0.06,0.645l-0.064,0.646l-0.069,0.649l-0.072,0.644l-0.076,0.645l-0.08,0.648l-0.084,0.649l-0.088,0.643l-0.091,0.643l-0.097,0.651l-0.1,0.642l-0.103,0.642l-0.108,0.646l-0.111,0.641l-0.116,0.645l-0.119,0.644l-0.123,0.639l-0.128,0.643l-0.132,0.643l-0.134,0.638l-0.14,0.641l-0.143,0.641l-0.148,0.641l-0.151,0.639l-0.155,0.634l-0.159,0.639l-0.164,0.637l-0.166,0.632l-0.171,0.637l-0.176,0.639l-0.18,0.634l-0.182,0.63l-0.187,0.633l-0.191,0.631l-0.196,0.632l-0.199,0.63l-0.203,0.629l-0.208,0.628l-0.209,0.623l-0.216,0.631l-0.222,0.63l-0.221,0.62l-0.227,0.623l-0.232,0.623l-0.234,0.621l-0.241,0.624l-0.244,0.62l-0.245,0.613l-0.253,0.621l-0.257,0.62l-0.257,0.61l-0.263,0.613l-0.269,0.616l-0.273,0.615l-0.276,0.609l-0.277,0.604l-0.285,0.611l-0.289,0.61l-0.289,0.6l-0.297,0.607l-0.302,0.605l-0.303,0.599l-0.307,0.599l-0.313,0.601l-0.318,0.599l-0.317,0.591l-0.324,0.595l-0.33,0.595l-0.332,0.59l-0.337,0.591l-0.34,0.588l-0.342,0.583l-0.349,0.587l-0.354,0.585l-0.357,0.582l-0.362,0.582l-0.363,0.576l-0.367,0.574l-0.374,0.577l-0.377,0.573l-0.382,0.573l-0.383,0.567l-0.389,0.569l-0.394,0.567l-0.397,0.564l-0.401,0.563l-0.404,0.559l-0.409,0.558l-0.413,0.557l-0.418,0.555l-0.4,0.525l-105.966,138.137l-0.405,0.524l-0.43,0.55l-0.428,0.539l-0.433,0.539l-0.439,0.54l-0.437,0.53l-0.443,0.531l-0.446,0.528l-0.444,0.518l-0.452,0.521l-0.455,0.518l-0.454,0.51l-0.459,0.51l-0.463,0.506l-0.462,0.5l-0.468,0.5l-0.471,0.496l-0.47,0.49l-0.476,0.489l-0.477,0.485l-0.477,0.478l-0.483,0.478l-0.489,0.479l-0.487,0.469l-0.487,0.465l-0.493,0.464l-0.496,0.461l-0.498,0.457l-0.5,0.453l-0.501,0.448l-0.503,0.445l-0.511,0.446l-0.508,0.437l-0.51,0.435l-0.514,0.432l-0.515,0.427l-0.518,0.424l-0.522,0.422l-0.524,0.418l-0.522,0.412l-0.528,0.41l-0.53,0.407l-0.532,0.404l-0.534,0.4l-0.535,0.395l-0.535,0.39l-0.54,0.389l-0.544,0.387l-0.541,0.379l-0.546,0.377l-0.549,0.376l-0.547,0.368l-0.552,0.367l-0.555,0.364l-0.554,0.359l-0.556,0.355l-0.561,0.353l-0.56,0.348l-0.56,0.343l-0.565,0.342l-0.568,0.338l-0.567,0.334l-0.568,0.329l-0.571,0.326l-0.575,0.324l-0.573,0.318l-0.574,0.314l-0.579,0.312l-0.578,0.308l-0.582,0.305l-0.584,0.301l-0.582,0.295l-0.585,0.293l-0.589,0.291l-0.588,0.285l-0.587,0.281l-0.591,0.278l-0.596,0.276l-0.593,0.27l-0.594,0.267l-0.598,0.263l-0.598,0.26l-0.597,0.255l-0.603,0.253l-0.602,0.248l-0.603,0.245l-0.606,0.241l-0.603,0.237l-0.608,0.233l-0.609,0.231l-0.61,0.226l-0.611,0.222l-0.611,0.219l-0.612,0.214l-0.612,0.211l-0.619,0.208l-0.615,0.203l-0.616,0.2l-0.619,0.196l-0.617,0.192l-0.622,0.189l-0.622,0.185l-0.623,0.181l-0.62,0.177l-0.623,0.173l-0.628,0.17l-0.626,0.166l-0.655,0.17l-1.226,0.305l-1.26,0.299l-1.262,0.282l-1.265,0.268l-1.268,0.252l-1.27,0.238l-1.273,0.222l-1.276,0.207l-1.279,0.192l-1.28,0.176l-1.283,0.161l-1.283,0.146l-1.285,0.131l-1.289,0.115l-1.288,0.1l-1.291,0.085l-1.291,0.069l-1.291,0.054l-1.294,0.038l-1.263,0.023l-0.678,0.006l-0.65,0.002l-0.646,-0.002l-0.647,-0.006l-0.647,-0.01l-0.647,-0.014l-0.649,-0.017l-0.649,-0.022l-0.647,-0.025l-0.647,-0.029l-0.649,-0.033l-0.648,-0.037l-0.647,-0.041l-0.648,-0.045l-0.648,-0.049l-0.646,-0.052l-0.648,-0.057l-0.648,-0.06l-0.645,-0.065l-0.647,-0.068l-0.649,-0.072l-0.645,-0.076l-0.646,-0.08l-0.648,-0.085l-0.643,-0.087l-0.645,-0.092l-0.645,-0.096l-0.644,-0.099l-0.647,-0.104l-0.644,-0.108l-0.642,-0.111l-0.643,-0.116l-0.642,-0.119l-0.644,-0.124l-0.641,-0.127l-0.64,-0.131l-0.642,-0.136l-0.642,-0.139l-0.639,-0.144l-0.638,-0.147l-0.639,-0.151l-0.637,-0.155l-0.638,-0.159l-0.637,-0.164l-0.635,-0.167l-0.636,-0.171l-0.635,-0.175l-0.633,-0.179l-0.633,-0.183l-0.635,-0.188l-0.63,-0.191l-0.628,-0.194l-0.633,-0.2l-0.629,-0.203l-0.629,-0.208l-0.628,-0.211l-0.625,-0.215l-0.626,-0.219l-0.625,-0.223l-0.624,-0.228l-0.62,-0.23l-0.622,-0.236l-0.623,-0.24l-0.621,-0.244l-0.618,-0.247l-0.617,-0.251l-0.616,-0.256l-0.615,-0.259l-0.613,-0.263l-0.613,-0.268l-0.612,-0.272l-0.612,-0.276l-0.609,-0.28l-0.609,-0.284l-0.606,-0.287l-0.604,-0.291l-0.605,-0.297l-0.604,-0.3l-0.601,-0.304l-0.6,-0.308l-0.597,-0.311l-0.598,-0.317l-0.598,-0.321l-0.594,-0.324l-0.591,-0.327l-0.591,-0.333l-0.59,-0.336l-0.588,-0.34l-0.588,-0.346l-0.584,-0.348l-0.584,-0.352l-0.582,-0.357l-0.579,-0.36l-0.579,-0.365l-0.576,-0.368l-0.577,-0.374l-0.573,-0.377l-0.57,-0.38l-0.57,-0.385l-0.567,-0.388l-0.566,-0.393l-0.564,-0.397l-0.564,-0.402l-0.56,-0.405l-0.557,-0.408l-0.557,-0.413l-0.552,-0.416l-0.527,-0.401l-332.577,-255.125l-0.525,-0.405l-0.546,-0.427l-0.543,-0.43l-0.539,-0.433l-0.536,-0.436l-0.534,-0.44l-0.528,-0.441l-0.527,-0.445l-0.523,-0.449l-0.519,-0.45l-0.516,-0.453l-0.51,-0.454l-0.51,-0.459l-0.507,-0.464l-0.502,-0.464l-0.498,-0.466l-0.494,-0.468l-0.493,-0.473l-0.489,-0.476l-0.484,-0.477l-0.481,-0.479l-0.478,-0.483l-0.473,-0.485l-0.47,-0.486l-0.469,-0.493l-0.463,-0.492l-0.46,-0.494l-0.456,-0.497l-0.452,-0.499l-0.452,-0.504l-0.445,-0.504l-0.442,-0.507l-0.44,-0.51l-0.434,-0.51l-0.432,-0.514l-0.428,-0.517l-0.425,-0.518l-0.419,-0.519l-0.418,-0.523l-0.415,-0.527l-0.411,-0.527l-0.405,-0.528l-0.402,-0.53l-0.4,-0.535l-0.395,-0.535l-0.392,-0.537l-0.389,-0.541l-0.384,-0.54l-0.382,-0.544l-0.377,-0.546l-0.373,-0.546l-0.372,-0.551l-0.367,-0.553l-0.362,-0.551l-0.359,-0.554l-0.356,-0.559l-0.351,-0.557l-0.349,-0.561l-0.345,-0.563l-0.34,-0.563l-0.338,-0.567l-0.333,-0.566l-0.33,-0.57l-0.327,-0.572l-0.323,-0.574l-0.319,-0.574l-0.314,-0.574l-0.312,-0.578l-0.309,-0.581l-0.303,-0.579l-0.299,-0.58l-0.298,-0.586l-0.293,-0.586l-0.289,-0.587l-0.286,-0.588l-0.281,-0.589l-0.279,-0.591l-0.274,-0.593l-0.271,-0.595l-0.267,-0.595l-0.264,-0.597l-0.259,-0.598l-0.256,-0.599l-0.252,-0.601l-0.249,-0.602l-0.244,-0.603l-0.241,-0.605l-0.238,-0.607l-0.233,-0.606l-0.23,-0.608l-0.226,-0.609l-0.222,-0.61l-0.219,-0.612l-0.215,-0.615l-0.211,-0.613l-0.207,-0.614l-0.203,-0.615l-0.2,-0.618l-0.196,-0.619l-0.193,-0.62l-0.188,-0.619l-0.184,-0.62l-0.182,-0.624l-0.178,-0.624l-0.173,-0.623l-0.169,-0.623l-0.166,-0.626l-0.17,-0.658l-0.306,-1.226l-0.297,-1.258l-0.283,-1.262l-0.268,-1.266l-0.253,-1.268l-0.237,-1.27l-0.222,-1.274l-0.207,-1.277l-0.192,-1.277l-0.176,-1.28l-0.161,-1.282l-0.146,-1.283l-0.131,-1.286l-0.115,-1.289l-0.1,-1.289l-0.085,-1.29l-0.069,-1.29l-0.054,-1.294l-0.038,-1.292l-0.023,-1.264l-0.006,-0.678l-0.002,-0.646l0.002,-0.65l0.006,-0.646l0.01,-0.647l0.014,-0.65l0.017,-0.646l0.021,-0.647l0.026,-0.649l0.029,-0.647l0.033,-0.649l0.037,-0.648l0.041,-0.647l0.045,-0.648l0.049,-0.649l0.052,-0.645l0.057,-0.648l0.06,-0.648l0.064,-0.647l0.069,-0.645l0.072,-0.647l0.076,-0.649l0.08,-0.644l0.084,-0.646l0.088,-0.645l0.092,-0.646l0.095,-0.644l0.1,-0.644l0.104,-0.647l0.108,-0.643l0.111,-0.643l0.116,-0.643l0.119,-0.642l0.124,-0.644l0.127,-0.641l0.131,-0.643l0.136,-0.639l0.139,-0.639l0.143,-0.642l0.147,-0.638l0.152,-0.639l0.155,-0.637l0.159,-0.638l0.163,-0.637l0.167,-0.635l0.172,-0.636l0.175,-0.635l0.179,-0.635l0.183,-0.631l0.187,-0.633l0.191,-0.632l0.196,-0.631l0.199,-0.63l0.203,-0.629l0.207,-0.629l0.211,-0.625l0.216,-0.629l0.219,-0.625l0.223,-0.624l0.228,-0.626l0.231,-0.622l0.235,-0.622l0.24,-0.62l0.243,-0.619l0.247,-0.618l0.252,-0.618l0.256,-0.618l0.259,-0.614l0.263,-0.614l0.268,-0.614l0.272,-0.612l0.276,-0.61l0.279,-0.608l0.284,-0.609l0.288,-0.607l0.291,-0.605l0.296,-0.604l0.3,-0.603l0.305,-0.602l0.308,-0.6l0.312,-0.599l0.316,-0.596l0.32,-0.596l0.325,-0.596l0.327,-0.591l0.332,-0.591l0.338,-0.592l0.34,-0.588l0.343,-0.584l0.349,-0.585l0.353,-0.585l0.357,-0.583l0.36,-0.579l0.364,-0.577l0.37,-0.578l0.373,-0.576l0.376,-0.572l0.38,-0.571l0.385,-0.569l0.389,-0.568l0.393,-0.567l0.398,-0.565l0.4,-0.561l0.404,-0.559l0.41,-0.559l0.413,-0.557l0.417,-0.555l0.401,-0.526l105.967,-138.137l0.404,-0.524l0.429,-0.547l0.43,-0.543l0.433,-0.539l0.437,-0.537l0.438,-0.532l0.442,-0.53l0.446,-0.526l0.446,-0.522l0.451,-0.52l0.453,-0.515l0.457,-0.514l0.459,-0.509l0.459,-0.503l0.465,-0.503l0.469,-0.5l0.469,-0.495l0.471,-0.491l0.475,-0.488l0.478,-0.485l0.479,-0.48l0.483,-0.478l0.485,-0.475l0.488,-0.471l0.489,-0.466l0.492,-0.463l0.496,-0.461l0.497,-0.457l0.5,-0.453l0.502,-0.449l0.504,-0.446l0.508,-0.443l0.509,-0.438l0.512,-0.436l0.513,-0.431l0.515,-0.427l0.519,-0.425l0.521,-0.421l0.523,-0.418l0.524,-0.413l0.528,-0.411l0.53,-0.407l0.53,-0.401l0.532,-0.399l0.537,-0.397l0.538,-0.392l0.539,-0.388l0.541,-0.385l0.544,-0.381l0.545,-0.377l0.548,-0.374l0.549,-0.37l0.552,-0.367l0.553,-0.363l0.555,-0.359l0.557,-0.356l0.558,-0.352l0.561,-0.348l0.562,-0.345l0.565,-0.341l0.567,-0.338l0.566,-0.333l0.569,-0.33l0.572,-0.326l0.571,-0.322l0.575,-0.319l0.577,-0.316l0.577,-0.311l0.579,-0.308l0.581,-0.304l0.582,-0.3l0.584,-0.297l0.585,-0.293l0.588,-0.29l0.588,-0.285l0.589,-0.282l0.592,-0.278l0.593,-0.275l0.593,-0.27l0.594,-0.267l0.598,-0.264l0.599,-0.259l0.599,-0.256l0.601,-0.252l0.601,-0.248l0.604,-0.245l0.605,-0.242l0.606,-0.237l0.606,-0.233l0.608,-0.23l0.611,-0.226l0.61,-0.222l0.611,-0.219l0.613,-0.215l0.613,-0.21l0.617,-0.208l0.616,-0.204l0.616,-0.199l0.618,-0.196l0.62,-0.193l0.621,-0.188l0.62,-0.185l0.621,-0.181l0.624,-0.177l0.625,-0.174l0.624,-0.169l0.626,-0.166l0.657,-0.17l1.225,-0.306l1.259,-0.298l1.262,-0.283l1.266,-0.267l1.268,-0.253l1.27,-0.237l1.274,-0.222l1.276,-0.207l1.277,-0.192l1.281,-0.176l1.282,-0.162l1.284,-0.146l1.286,-0.13l1.287,-0.115l1.289,-0.101l1.29,-0.084l1.292,-0.069l1.292,-0.054l1.293,-0.039l1.263,-0.022l0.678,-0.006l0.648,-0.002l0.647,0.002Zm-1.173,20.833l-0.523,0.005l-1.045,0.018l-1.045,0.031l-1.044,0.044l-1.043,0.056l-1.042,0.068l-1.042,0.081l-1.04,0.093l-1.039,0.106l-1.037,0.117l-1.036,0.131l-1.035,0.142l-1.032,0.155l-1.031,0.167l-1.029,0.18l-1.026,0.192l-1.025,0.204l-1.022,0.216l-1.02,0.228l-1.017,0.241l-1.014,0.253l-0.506,0.131l-0.506,0.134l-0.504,0.137l-0.504,0.14l-0.503,0.143l-0.503,0.146l-0.501,0.15l-0.501,0.152l-0.5,0.155l-0.499,0.158l-0.498,0.162l-0.498,0.164l-0.496,0.167l-0.496,0.171l-0.494,0.173l-0.494,0.176l-0.493,0.18l-0.492,0.182l-0.49,0.186l-0.49,0.188l-0.489,0.192l-0.488,0.194l-0.487,0.197l-0.485,0.201l-0.485,0.203l-0.484,0.207l-0.482,0.209l-0.481,0.213l-0.481,0.215l-0.479,0.218l-0.478,0.222l-0.476,0.224l-0.476,0.227l-0.474,0.231l-0.474,0.233l-0.471,0.236l-0.471,0.239l-0.47,0.242l-0.468,0.246l-0.467,0.248l-0.465,0.251l-0.464,0.254l-0.463,0.257l-0.462,0.26l-0.46,0.263l-0.459,0.266l-0.457,0.268l-0.456,0.272l-0.455,0.275l-0.453,0.278l-0.451,0.28l-0.45,0.284l-0.449,0.286l-0.447,0.29l-0.446,0.292l-0.444,0.295l-0.443,0.299l-0.441,0.301l-0.439,0.304l-0.438,0.307l-0.436,0.31l-0.435,0.313l-0.433,0.315l-0.431,0.319l-0.43,0.322l-0.428,0.324l-0.426,0.328l-0.425,0.33l-0.422,0.333l-0.421,0.336l-0.42,0.34l-0.417,0.342l-0.416,0.344l-0.414,0.348l-0.412,0.351l-0.411,0.353l-0.408,0.357l-0.407,0.359l-0.404,0.362l-0.403,0.366l-0.401,0.368l-0.399,0.37l-0.397,0.374l-0.395,0.377l-0.393,0.379l-0.391,0.383l-0.39,0.385l-0.387,0.388l-0.385,0.391l-0.383,0.394l-0.381,0.397l-0.379,0.399l-0.377,0.403l-0.375,0.405l-0.372,0.408l-0.371,0.411l-0.368,0.414l-0.366,0.417l-0.364,0.42l-0.362,0.422l-0.36,0.425l-0.357,0.428l-0.355,0.431l-0.353,0.434l-0.351,0.437l-0.348,0.439l-0.346,0.443l-0.344,0.445l-105.927,138.086l-0.341,0.447l-0.338,0.449l-0.334,0.45l-0.331,0.452l-0.327,0.453l-0.325,0.455l-0.321,0.456l-0.317,0.457l-0.314,0.459l-0.311,0.461l-0.308,0.461l-0.304,0.463l-0.301,0.465l-0.298,0.465l-0.294,0.467l-0.292,0.468l-0.287,0.47l-0.285,0.471l-0.281,0.472l-0.278,0.473l-0.274,0.475l-0.272,0.475l-0.268,0.477l-0.264,0.478l-0.262,0.479l-0.258,0.481l-0.255,0.481l-0.251,0.483l-0.249,0.483l-0.245,0.485l-0.241,0.486l-0.239,0.487l-0.235,0.488l-0.232,0.489l-0.229,0.49l-0.225,0.49l-0.222,0.492l-0.219,0.493l-0.216,0.494l-0.212,0.495l-0.209,0.495l-0.206,0.497l-0.202,0.497l-0.2,0.499l-0.196,0.499l-0.193,0.5l-0.189,0.501l-0.187,0.501l-0.183,0.503l-0.18,0.503l-0.176,0.504l-0.174,0.505l-0.17,0.505l-0.167,0.506l-0.163,0.507l-0.161,0.508l-0.157,0.508l-0.154,0.509l-0.151,0.51l-0.147,0.51l-0.145,0.511l-0.141,0.511l-0.138,0.512l-0.135,0.513l-0.131,0.513l-0.128,0.513l-0.125,0.514l-0.122,0.515l-0.119,0.515l-0.116,0.516l-0.112,0.516l-0.109,0.517l-0.106,0.517l-0.103,0.517l-0.099,0.518l-0.096,0.518l-0.094,0.519l-0.09,0.519l-0.086,0.519l-0.084,0.52l-0.08,0.52l-0.078,0.52l-0.074,0.521l-0.071,0.52l-0.067,0.521l-0.065,0.522l-0.061,0.521l-0.059,0.522l-0.055,0.522l-0.052,0.522l-0.048,0.522l-0.046,0.523l-0.043,0.522l-0.039,0.523l-0.036,0.523l-0.033,0.523l-0.03,0.523l-0.027,0.523l-0.023,0.523l-0.021,0.523l-0.017,0.523l-0.014,0.523l-0.011,0.523l-0.008,0.523l-0.005,0.523l-0.001,0.523l0.001,0.523l0.005,0.523l0.018,1.045l0.031,1.045l0.044,1.044l0.056,1.043l0.068,1.042l0.081,1.041l0.093,1.041l0.106,1.038l0.118,1.038l0.13,1.036l0.142,1.034l0.155,1.033l0.168,1.031l0.179,1.029l0.192,1.026l0.204,1.025l0.216,1.022l0.228,1.019l0.241,1.017l0.253,1.015l0.131,0.506l0.134,0.505l0.137,0.505l0.14,0.504l0.143,0.503l0.147,0.502l0.149,0.502l0.152,0.501l0.155,0.5l0.158,0.499l0.162,0.498l0.164,0.497l0.167,0.497l0.171,0.495l0.173,0.495l0.177,0.494l0.179,0.493l0.182,0.491l0.186,0.491l0.188,0.49l0.192,0.489l0.194,0.488l0.198,0.486l0.2,0.486l0.203,0.485l0.207,0.483l0.209,0.483l0.213,0.481l0.215,0.48l0.218,0.48l0.222,0.477l0.224,0.477l0.227,0.476l0.231,0.474l0.233,0.473l0.236,0.472l0.239,0.471l0.243,0.469l0.245,0.469l0.248,0.466l0.251,0.466l0.254,0.464l0.257,0.463l0.26,0.462l0.263,0.46l0.266,0.458l0.269,0.458l0.271,0.456l0.275,0.454l0.278,0.453l0.28,0.452l0.284,0.45l0.286,0.449l0.29,0.447l0.292,0.446l0.295,0.444l0.299,0.442l0.301,0.441l0.304,0.44l0.307,0.438l0.31,0.436l0.313,0.435l0.316,0.433l0.318,0.431l0.322,0.429l0.324,0.428l0.328,0.427l0.33,0.424l0.333,0.423l0.337,0.421l0.339,0.42l0.342,0.417l0.345,0.416l0.347,0.414l0.351,0.412l0.354,0.41l0.356,0.409l0.359,0.406l0.363,0.405l0.365,0.403l0.368,0.401l0.371,0.399l0.373,0.397l0.377,0.395l0.38,0.393l0.382,0.391l0.385,0.389l0.388,0.388l0.391,0.385l0.394,0.383l0.397,0.381l0.4,0.379l0.402,0.377l0.405,0.374l0.409,0.373l0.411,0.37l0.413,0.369l0.417,0.366l0.42,0.364l0.422,0.362l0.426,0.359l0.428,0.358l0.431,0.355l0.433,0.353l0.437,0.35l0.44,0.349l0.442,0.346l0.445,0.343l332.524,255.084l0.447,0.341l0.449,0.337l0.45,0.335l0.452,0.331l0.453,0.327l0.455,0.324l0.456,0.321l0.458,0.318l0.458,0.314l0.461,0.311l0.461,0.308l0.463,0.304l0.465,0.301l0.465,0.298l0.467,0.294l0.469,0.291l0.469,0.288l0.471,0.285l0.472,0.281l0.473,0.278l0.475,0.274l0.475,0.271l0.477,0.268l0.478,0.265l0.479,0.262l0.481,0.258l0.481,0.255l0.483,0.251l0.483,0.248l0.485,0.245l0.486,0.242l0.487,0.239l0.488,0.235l0.489,0.232l0.49,0.228l0.491,0.226l0.492,0.222l0.492,0.219l0.494,0.215l0.495,0.213l0.496,0.209l0.496,0.206l0.498,0.202l0.498,0.199l0.499,0.197l0.5,0.192l0.501,0.19l0.501,0.186l0.503,0.183l0.503,0.18l0.504,0.177l0.505,0.173l0.505,0.17l0.506,0.167l0.507,0.164l0.508,0.16l0.508,0.158l0.509,0.154l0.51,0.151l0.51,0.147l0.511,0.144l0.511,0.142l0.512,0.138l0.513,0.134l0.513,0.132l0.513,0.128l0.515,0.125l0.514,0.122l0.515,0.119l0.516,0.115l0.516,0.113l0.517,0.109l0.517,0.106l0.517,0.102l0.518,0.1l0.518,0.096l0.519,0.093l0.519,0.09l0.519,0.087l0.52,0.084l0.52,0.08l0.52,0.077l0.521,0.075l0.52,0.07l0.522,0.068l0.521,0.065l0.521,0.061l0.522,0.058l0.522,0.055l0.522,0.052l0.522,0.049l0.523,0.046l0.522,0.042l0.523,0.04l0.523,0.036l0.523,0.033l0.523,0.03l0.523,0.026l0.523,0.024l0.523,0.02l0.523,0.018l0.523,0.014l0.523,0.011l0.523,0.008l0.523,0.005l0.523,0.001l0.523,-0.001l0.523,-0.005l1.045,-0.019l1.045,-0.031l1.044,-0.043l1.043,-0.056l1.042,-0.068l1.042,-0.081l1.04,-0.093l1.039,-0.106l1.037,-0.118l1.036,-0.13l1.034,-0.143l1.033,-0.155l1.031,-0.167l1.029,-0.179l1.026,-0.192l1.025,-0.204l1.022,-0.216l1.02,-0.229l1.017,-0.24l1.014,-0.253l0.506,-0.131l0.505,-0.134l0.505,-0.137l0.504,-0.14l0.503,-0.144l0.503,-0.146l0.501,-0.149l0.501,-0.152l0.5,-0.155l0.499,-0.159l0.498,-0.161l0.497,-0.164l0.497,-0.168l0.496,-0.17l0.494,-0.173l0.494,-0.177l0.493,-0.179l0.491,-0.183l0.491,-0.185l0.49,-0.189l0.489,-0.191l0.488,-0.194l0.487,-0.198l0.485,-0.2l0.485,-0.204l0.483,-0.206l0.483,-0.21l0.481,-0.212l0.481,-0.215l0.479,-0.219l0.478,-0.221l0.476,-0.224l0.476,-0.228l0.474,-0.23l0.473,-0.233l0.472,-0.236l0.471,-0.24l0.469,-0.242l0.469,-0.245l0.466,-0.248l0.466,-0.251l0.464,-0.254l0.463,-0.257l0.462,-0.26l0.46,-0.263l0.459,-0.266l0.457,-0.269l0.456,-0.272l0.454,-0.274l0.454,-0.278l0.451,-0.281l0.45,-0.283l0.449,-0.287l0.447,-0.289l0.446,-0.292l0.444,-0.296l0.443,-0.298l0.441,-0.301l0.439,-0.304l0.438,-0.307l0.436,-0.31l0.435,-0.313l0.433,-0.316l0.431,-0.319l0.43,-0.321l0.428,-0.325l0.426,-0.327l0.424,-0.33l0.423,-0.334l0.421,-0.336l0.42,-0.339l0.417,-0.342l0.416,-0.345l0.414,-0.348l0.412,-0.35l0.41,-0.354l0.409,-0.356l0.406,-0.36l0.405,-0.362l0.403,-0.365l0.401,-0.368l0.399,-0.371l0.397,-0.374l0.395,-0.376l0.393,-0.38l0.391,-0.382l0.39,-0.385l0.387,-0.389l0.385,-0.391l0.383,-0.393l0.381,-0.397l0.379,-0.4l0.377,-0.402l0.374,-0.406l0.373,-0.408l0.371,-0.411l0.368,-0.414l0.366,-0.416l0.364,-0.42l0.362,-0.422l0.359,-0.426l0.358,-0.428l0.355,-0.431l0.353,-0.434l0.351,-0.436l0.348,-0.44l0.346,-0.442l0.344,-0.445l105.927,-138.086l0.341,-0.447l0.338,-0.449l0.334,-0.451l0.331,-0.451l0.327,-0.454l0.325,-0.454l0.32,-0.456l0.318,-0.458l0.314,-0.459l0.311,-0.46l0.308,-0.462l0.304,-0.463l0.301,-0.464l0.298,-0.466l0.294,-0.467l0.291,-0.468l0.288,-0.469l0.285,-0.471l0.281,-0.472l0.278,-0.473l0.274,-0.475l0.272,-0.476l0.268,-0.476l0.264,-0.479l0.262,-0.479l0.258,-0.48l0.255,-0.482l0.251,-0.482l0.249,-0.484l0.245,-0.485l0.241,-0.485l0.239,-0.487l0.235,-0.488l0.232,-0.489l0.229,-0.49l0.225,-0.491l0.222,-0.492l0.219,-0.493l0.216,-0.493l0.212,-0.495l0.209,-0.496l0.206,-0.496l0.202,-0.498l0.2,-0.498l0.196,-0.499l0.193,-0.5l0.189,-0.501l0.186,-0.502l0.184,-0.502l0.179,-0.503l0.177,-0.504l0.173,-0.505l0.171,-0.506l0.166,-0.506l0.164,-0.507l0.161,-0.507l0.157,-0.508l0.154,-0.509l0.151,-0.51l0.147,-0.51l0.145,-0.511l0.141,-0.511l0.138,-0.512l0.134,-0.513l0.132,-0.513l0.128,-0.514l0.125,-0.514l0.122,-0.515l0.119,-0.515l0.115,-0.515l0.113,-0.517l0.109,-0.516l0.106,-0.517l0.102,-0.518l0.1,-0.517l0.096,-0.519l0.094,-0.518l0.089,-0.519l0.087,-0.52l0.084,-0.519l0.08,-0.52l0.078,-0.52l0.074,-0.521l0.071,-0.521l0.067,-0.521l0.065,-0.521l0.061,-0.522l0.059,-0.521l0.055,-0.522l0.052,-0.522l0.048,-0.523l0.046,-0.522l0.042,-0.523l0.04,-0.522l0.036,-0.523l0.033,-0.523l0.03,-0.523l0.026,-0.523l0.024,-0.523l0.021,-0.523l0.017,-0.523l0.014,-0.523l0.011,-0.523l0.008,-0.523l0.005,-0.523l0.001,-0.523l-0.001,-0.523l-0.005,-0.523l-0.018,-1.045l-0.031,-1.045l-0.044,-1.044l-0.056,-1.043l-0.068,-1.043l-0.081,-1.041l-0.093,-1.04l-0.106,-1.039l-0.118,-1.037l-0.13,-1.036l-0.143,-1.035l-0.154,-1.032l-0.168,-1.031l-0.179,-1.029l-0.192,-1.027l-0.204,-1.024l-0.216,-1.022l-0.229,-1.02l-0.24,-1.017l-0.253,-1.014l-0.131,-0.506l-0.134,-0.506l-0.137,-0.504l-0.14,-0.504l-0.143,-0.503l-0.147,-0.503l-0.149,-0.501l-0.152,-0.501l-0.155,-0.5l-0.159,-0.499l-0.161,-0.498l-0.164,-0.498l-0.168,-0.496l-0.17,-0.496l-0.173,-0.494l-0.177,-0.494l-0.179,-0.493l-0.183,-0.492l-0.185,-0.491l-0.188,-0.489l-0.192,-0.489l-0.194,-0.488l-0.198,-0.487l-0.2,-0.486l-0.204,-0.484l-0.206,-0.484l-0.209,-0.482l-0.213,-0.482l-0.215,-0.48l-0.219,-0.479l-0.221,-0.478l-0.224,-0.477l-0.228,-0.475l-0.23,-0.475l-0.233,-0.473l-0.236,-0.472l-0.24,-0.47l-0.242,-0.47l-0.245,-0.468l-0.248,-0.467l-0.251,-0.465l-0.254,-0.465l-0.257,-0.462l-0.26,-0.462l-0.263,-0.46l-0.266,-0.459l-0.269,-0.457l-0.271,-0.456l-0.275,-0.455l-0.278,-0.453l-0.28,-0.451l-0.284,-0.451l-0.286,-0.448l-0.29,-0.447l-0.292,-0.446l-0.296,-0.444l-0.298,-0.443l-0.301,-0.441l-0.304,-0.439l-0.307,-0.438l-0.31,-0.436l-0.313,-0.435l-0.316,-0.433l-0.318,-0.431l-0.322,-0.43l-0.325,-0.428l-0.327,-0.426l-0.33,-0.425l-0.334,-0.423l-0.336,-0.421l-0.339,-0.419l-0.342,-0.417l-0.345,-0.416l-0.347,-0.414l-0.351,-0.412l-0.354,-0.411l-0.356,-0.408l-0.359,-0.407l-0.363,-0.404l-0.365,-0.403l-0.368,-0.401l-0.371,-0.399l-0.373,-0.397l-0.377,-0.395l-0.38,-0.394l-0.382,-0.391l-0.385,-0.389l-0.388,-0.387l-0.391,-0.385l-0.394,-0.383l-0.397,-0.381l-0.4,-0.379l-0.402,-0.377l-0.405,-0.375l-0.409,-0.372l-0.411,-0.371l-0.414,-0.368l-0.416,-0.366l-0.42,-0.364l-0.422,-0.362l-0.426,-0.36l-0.428,-0.357l-0.431,-0.355l-0.433,-0.353l-0.437,-0.351l-0.44,-0.348l-0.442,-0.346l-0.445,-0.344l-332.524,-255.083l-0.447,-0.341l-0.449,-0.338l-0.45,-0.334l-0.452,-0.331l-0.453,-0.328l-0.455,-0.324l-0.456,-0.321l-0.458,-0.317l-0.459,-0.315l-0.46,-0.31l-0.461,-0.308l-0.463,-0.304l-0.465,-0.301l-0.465,-0.298l-0.467,-0.295l-0.469,-0.291l-0.469,-0.287l-0.471,-0.285l-0.472,-0.281l-0.473,-0.278l-0.475,-0.275l-0.475,-0.271l-0.477,-0.268l-0.478,-0.265l-0.48,-0.261l-0.48,-0.258l-0.481,-0.255l-0.483,-0.252l-0.484,-0.248l-0.484,-0.245l-0.486,-0.242l-0.487,-0.238l-0.488,-0.235l-0.489,-0.232l-0.49,-0.229l-0.491,-0.225l-0.492,-0.222l-0.492,-0.219l-0.494,-0.216l-0.495,-0.212l-0.496,-0.209l-0.496,-0.206l-0.498,-0.203l-0.498,-0.199l-0.499,-0.196l-0.5,-0.193l-0.501,-0.189l-0.502,-0.187l-0.502,-0.183l-0.503,-0.18l-0.504,-0.176l-0.505,-0.174l-0.505,-0.17l-0.507,-0.167l-0.506,-0.163l-0.508,-0.161l-0.508,-0.157l-0.509,-0.154l-0.51,-0.151l-0.51,-0.148l-0.511,-0.144l-0.511,-0.141l-0.512,-0.138l-0.513,-0.135l-0.513,-0.131l-0.513,-0.129l-0.515,-0.125l-0.514,-0.122l-0.516,-0.118l-0.515,-0.116l-0.516,-0.112l-0.517,-0.109l-0.517,-0.106l-0.517,-0.103l-0.518,-0.099l-0.518,-0.097l-0.519,-0.093l-0.519,-0.09l-0.519,-0.087l-0.52,-0.083l-0.52,-0.081l-0.52,-0.077l-0.521,-0.074l-0.521,-0.071l-0.521,-0.068l-0.521,-0.064l-0.521,-0.062l-0.522,-0.058l-0.522,-0.055l-0.522,-0.052l-0.523,-0.049l-0.522,-0.045l-0.523,-0.043l-0.522,-0.039l-0.523,-0.036l-0.523,-0.033l-0.523,-0.03l-0.523,-0.027l-0.523,-0.023l-0.523,-0.021l-0.523,-0.017l-0.523,-0.014l-0.523,-0.011l-0.523,-0.008l-0.523,-0.005l-0.523,-0.002l-0.523,0.002Z"/><path d="M1605.58,1392.97l1218.71,-937.49l-156.662,-128.222l-1183.13,882.814l121.076,182.898Z" style="fill:#fff;"/><path d="M2855.56,454.156l-0.055,3.595l-1254.96,965.371l-144.292,-217.969l1211.96,-904.329l187.343,153.332Zm-1371.06,755.918l121.076,182.898l1218.71,-937.49l-156.662,-128.222l-1183.13,882.814Z"/></g></svg>