<?xml version="1.0" encoding="UTF-8" standalone="no"?><!DOCTYPE svg PUBLIC "-//W3C//DTD SVG 1.1//EN" "http://www.w3.org/Graphics/SVG/1.1/DTD/svg11.dtd"><svg width="100%" height="100%" viewBox="0 0 100 100" version="1.1" xmlns="http://www.w3.org/2000/svg" xmlns:xlink="http://www.w3.org/1999/xlink" xml:space="preserve" style="fill-rule:evenodd;clip-rule:evenodd;stroke-linejoin:round;stroke-miterlimit:1.41421;"><g id="Calque1"><g><path d="M29.408,75.852l0.058,0.013c0.148,6.311 3.551,12.164 7.598,13.109c3.71,0.867 9.566,-2.826 12.583,-8.397l0.057,0.014l3.097,-13.268l-7.89,-1.842l8.251,-35.339l7.325,-4.553c0.45,-0.279 0.77,-0.727 0.891,-1.243l0.933,-3.996c0.121,-0.516 0.031,-1.06 -0.249,-1.511c-0.28,-0.451 -0.727,-0.771 -1.245,-0.892l-6.975,-1.628l-6.975,-1.628c-1.076,-0.251 -2.152,0.417 -2.403,1.492l-0.933,3.995c-0.121,0.517 -0.031,1.061 0.249,1.511l4.435,7.138l-8.283,35.491l-7.426,-1.733l-3.098,13.267Zm18.208,-55.57l0.29,-1.241l10.056,2.349l-0.29,1.241l-4.944,3.072l-2.038,-0.476l-3.074,-4.945Z" style="fill:#586157;fill-rule:nonzero;stroke:#000;stroke-width:0.42px;"/><path d="M42.222,42.707c-0.518,-1.454 -0.326,-3.216 -0.953,-4.573c-0.668,-1.446 -2.051,-2.963 -2.989,-4.541c-0.999,-1.68 -1.752,-3.634 -1.945,-5.326c-0.433,-3.805 1.572,-7.178 4.641,-10.075c3.591,-3.391 10.069,-8.389 15.824,-7.078c3.449,0.786 5.092,3.693 8.304,6.05c1.215,0.775 4.041,-1.738 5.216,-0.473c0.574,0.619 0.141,1.921 -0.4,2.869c-1.002,1.755 -2.986,3.465 -4.018,5.064c-1.558,2.413 0.141,5.304 -1.013,7.756c-0.847,1.799 -3.196,3.507 -4.67,4.707c-4.733,3.851 -9.612,7.387 -14.784,8.821c-0.938,0.26 -2.446,0.598 -3.198,-0.116c-0.726,-0.691 -0.558,-2.041 -0.015,-3.085Zm16.839,-27.203c0.147,0.085 0.317,0.134 0.5,0.134c0.551,0 1,-0.448 1,-1c0,-0.552 -0.449,-1 -1,-1c-0.183,0 -0.353,0.049 -0.5,0.134c-0.148,-0.085 -0.318,-0.134 -0.5,-0.134c-0.552,0 -1,0.448 -1,1c0,0.552 0.448,1 1,1c0.182,0 0.352,-0.049 0.5,-0.134Z" style="fill:#586157;stroke:#000;stroke-width:0.42px;"/></g></g></svg>